<mxfile host="app.diagrams.net" agent="Mozilla/5.0 (Windows NT 10.0; Win64; x64) AppleWebKit/537.36 (KHTML, like Gecko) Chrome/131.0.0.0 Safari/537.36" version="25.0.1">
  <diagram name="PÃ¡gina-1" id="ay6yq3Yg9j5WX8Q1gkQ7">
    <mxGraphModel dx="1434" dy="780" grid="1" gridSize="10" guides="1" tooltips="1" connect="1" arrows="1" fold="1" page="1" pageScale="1" pageWidth="1169" pageHeight="827" math="0" shadow="0">
      <root>
        <mxCell id="0" />
        <mxCell id="1" parent="0" />
        <mxCell id="ti4mAkTOVs-2ToLPgw3a-4" style="edgeStyle=orthogonalEdgeStyle;rounded=0;orthogonalLoop=1;jettySize=auto;html=1;exitX=0.5;exitY=1;exitDx=0;exitDy=0;exitPerimeter=0;" edge="1" parent="1" source="ti4mAkTOVs-2ToLPgw3a-1" target="ti4mAkTOVs-2ToLPgw3a-3">
          <mxGeometry relative="1" as="geometry" />
        </mxCell>
        <mxCell id="ti4mAkTOVs-2ToLPgw3a-1" value="INICIO" style="strokeWidth=2;html=1;shape=mxgraph.flowchart.start_1;whiteSpace=wrap;" vertex="1" parent="1">
          <mxGeometry x="535" y="100" width="100" height="60" as="geometry" />
        </mxCell>
        <mxCell id="ti4mAkTOVs-2ToLPgw3a-2" value="FIM" style="strokeWidth=2;html=1;shape=mxgraph.flowchart.start_1;whiteSpace=wrap;" vertex="1" parent="1">
          <mxGeometry x="550" y="650" width="100" height="60" as="geometry" />
        </mxCell>
        <mxCell id="ti4mAkTOVs-2ToLPgw3a-6" value="" style="edgeStyle=orthogonalEdgeStyle;rounded=0;orthogonalLoop=1;jettySize=auto;html=1;" edge="1" parent="1" source="ti4mAkTOVs-2ToLPgw3a-3" target="ti4mAkTOVs-2ToLPgw3a-5">
          <mxGeometry relative="1" as="geometry" />
        </mxCell>
        <mxCell id="ti4mAkTOVs-2ToLPgw3a-3" value="NOME" style="html=1;strokeWidth=2;shape=manualInput;whiteSpace=wrap;rounded=1;size=26;arcSize=11;" vertex="1" parent="1">
          <mxGeometry x="535" y="190" width="100" height="60" as="geometry" />
        </mxCell>
        <mxCell id="ti4mAkTOVs-2ToLPgw3a-8" value="" style="edgeStyle=orthogonalEdgeStyle;rounded=0;orthogonalLoop=1;jettySize=auto;html=1;" edge="1" parent="1" source="ti4mAkTOVs-2ToLPgw3a-5" target="ti4mAkTOVs-2ToLPgw3a-7">
          <mxGeometry relative="1" as="geometry" />
        </mxCell>
        <mxCell id="ti4mAkTOVs-2ToLPgw3a-5" value="ANO" style="html=1;strokeWidth=2;shape=manualInput;whiteSpace=wrap;rounded=1;size=26;arcSize=11;" vertex="1" parent="1">
          <mxGeometry x="535" y="280" width="100" height="60" as="geometry" />
        </mxCell>
        <mxCell id="ti4mAkTOVs-2ToLPgw3a-10" value="" style="edgeStyle=orthogonalEdgeStyle;rounded=0;orthogonalLoop=1;jettySize=auto;html=1;" edge="1" parent="1" source="ti4mAkTOVs-2ToLPgw3a-7" target="ti4mAkTOVs-2ToLPgw3a-9">
          <mxGeometry relative="1" as="geometry" />
        </mxCell>
        <mxCell id="ti4mAkTOVs-2ToLPgw3a-7" value="SANGUE" style="html=1;strokeWidth=2;shape=manualInput;whiteSpace=wrap;rounded=1;size=26;arcSize=11;" vertex="1" parent="1">
          <mxGeometry x="535" y="370" width="100" height="60" as="geometry" />
        </mxCell>
        <mxCell id="ti4mAkTOVs-2ToLPgw3a-12" style="edgeStyle=orthogonalEdgeStyle;rounded=0;orthogonalLoop=1;jettySize=auto;html=1;exitX=0.5;exitY=1;exitDx=0;exitDy=0;" edge="1" parent="1" source="ti4mAkTOVs-2ToLPgw3a-9" target="ti4mAkTOVs-2ToLPgw3a-11">
          <mxGeometry relative="1" as="geometry" />
        </mxCell>
        <mxCell id="ti4mAkTOVs-2ToLPgw3a-9" value="RENDA" style="html=1;strokeWidth=2;shape=manualInput;whiteSpace=wrap;rounded=1;size=26;arcSize=11;" vertex="1" parent="1">
          <mxGeometry x="535" y="460" width="100" height="60" as="geometry" />
        </mxCell>
        <mxCell id="ti4mAkTOVs-2ToLPgw3a-11" value="NOME&lt;div&gt;ANO&lt;/div&gt;&lt;div&gt;SANGUE&lt;/div&gt;&lt;div&gt;RENDA&lt;/div&gt;" style="strokeWidth=2;html=1;shape=mxgraph.flowchart.display;whiteSpace=wrap;" vertex="1" parent="1">
          <mxGeometry x="535" y="540" width="100" height="80" as="geometry" />
        </mxCell>
        <mxCell id="ti4mAkTOVs-2ToLPgw3a-13" style="edgeStyle=orthogonalEdgeStyle;rounded=0;orthogonalLoop=1;jettySize=auto;html=1;exitX=0.5;exitY=1;exitDx=0;exitDy=0;exitPerimeter=0;entryX=0.41;entryY=0.083;entryDx=0;entryDy=0;entryPerimeter=0;" edge="1" parent="1" source="ti4mAkTOVs-2ToLPgw3a-11" target="ti4mAkTOVs-2ToLPgw3a-2">
          <mxGeometry relative="1" as="geometry" />
        </mxCell>
      </root>
    </mxGraphModel>
  </diagram>
</mxfile>
